<mxfile host="app.diagrams.net" modified="2024-03-05T20:14:40.193Z" agent="Mozilla/5.0 (Windows NT 10.0; Win64; x64) AppleWebKit/537.36 (KHTML, like Gecko) Chrome/122.0.0.0 Safari/537.36" etag="yundVycwrO9WPHA1vZ13" version="24.0.1" type="github">
  <diagram id="C5RBs43oDa-KdzZeNtuy" name="Page-1">
    <mxGraphModel dx="954" dy="600" grid="1" gridSize="10" guides="1" tooltips="1" connect="1" arrows="1" fold="1" page="1" pageScale="1" pageWidth="827" pageHeight="1169" math="0" shadow="0">
      <root>
        <mxCell id="WIyWlLk6GJQsqaUBKTNV-0" />
        <mxCell id="WIyWlLk6GJQsqaUBKTNV-1" parent="WIyWlLk6GJQsqaUBKTNV-0" />
        <mxCell id="FIWO02t76aJI0PrfVbyd-10" style="edgeStyle=orthogonalEdgeStyle;rounded=0;orthogonalLoop=1;jettySize=auto;html=1;exitX=0.5;exitY=1;exitDx=0;exitDy=0;exitPerimeter=0;entryX=0.5;entryY=0;entryDx=0;entryDy=0;" edge="1" parent="WIyWlLk6GJQsqaUBKTNV-1" source="FIWO02t76aJI0PrfVbyd-0" target="FIWO02t76aJI0PrfVbyd-2">
          <mxGeometry relative="1" as="geometry" />
        </mxCell>
        <mxCell id="FIWO02t76aJI0PrfVbyd-0" value="Inicio" style="strokeWidth=2;html=1;shape=mxgraph.flowchart.start_1;whiteSpace=wrap;" vertex="1" parent="WIyWlLk6GJQsqaUBKTNV-1">
          <mxGeometry x="364" y="20" width="56" height="40" as="geometry" />
        </mxCell>
        <mxCell id="FIWO02t76aJI0PrfVbyd-1" value="Fin" style="strokeWidth=2;html=1;shape=mxgraph.flowchart.start_1;whiteSpace=wrap;" vertex="1" parent="WIyWlLk6GJQsqaUBKTNV-1">
          <mxGeometry x="364" y="564.5" width="56" height="40" as="geometry" />
        </mxCell>
        <mxCell id="FIWO02t76aJI0PrfVbyd-11" style="edgeStyle=orthogonalEdgeStyle;rounded=0;orthogonalLoop=1;jettySize=auto;html=1;exitX=0.5;exitY=1;exitDx=0;exitDy=0;entryX=0.5;entryY=0;entryDx=0;entryDy=0;" edge="1" parent="WIyWlLk6GJQsqaUBKTNV-1" source="FIWO02t76aJI0PrfVbyd-2" target="FIWO02t76aJI0PrfVbyd-3">
          <mxGeometry relative="1" as="geometry" />
        </mxCell>
        <mxCell id="FIWO02t76aJI0PrfVbyd-2" value="terminalCercana" style="rounded=1;whiteSpace=wrap;html=1;absoluteArcSize=1;arcSize=14;strokeWidth=2;" vertex="1" parent="WIyWlLk6GJQsqaUBKTNV-1">
          <mxGeometry x="342" y="80" width="100" height="30" as="geometry" />
        </mxCell>
        <mxCell id="FIWO02t76aJI0PrfVbyd-12" style="edgeStyle=orthogonalEdgeStyle;rounded=0;orthogonalLoop=1;jettySize=auto;html=1;exitX=0.5;exitY=1;exitDx=0;exitDy=0;entryX=0.5;entryY=0;entryDx=0;entryDy=0;" edge="1" parent="WIyWlLk6GJQsqaUBKTNV-1" source="FIWO02t76aJI0PrfVbyd-3" target="FIWO02t76aJI0PrfVbyd-4">
          <mxGeometry relative="1" as="geometry" />
        </mxCell>
        <mxCell id="FIWO02t76aJI0PrfVbyd-3" value="int codigo = obj.codigo" style="rounded=1;whiteSpace=wrap;html=1;absoluteArcSize=1;arcSize=14;strokeWidth=2;" vertex="1" parent="WIyWlLk6GJQsqaUBKTNV-1">
          <mxGeometry x="342" y="130" width="100" height="40" as="geometry" />
        </mxCell>
        <mxCell id="FIWO02t76aJI0PrfVbyd-4" value="Query SELECT cp FROM terminals" style="rounded=1;whiteSpace=wrap;html=1;absoluteArcSize=1;arcSize=14;strokeWidth=2;" vertex="1" parent="WIyWlLk6GJQsqaUBKTNV-1">
          <mxGeometry x="313" y="190" width="158" height="50" as="geometry" />
        </mxCell>
        <mxCell id="FIWO02t76aJI0PrfVbyd-14" style="edgeStyle=orthogonalEdgeStyle;rounded=0;orthogonalLoop=1;jettySize=auto;html=1;exitX=0.5;exitY=1;exitDx=0;exitDy=0;exitPerimeter=0;entryX=0.5;entryY=0;entryDx=0;entryDy=0;" edge="1" parent="WIyWlLk6GJQsqaUBKTNV-1" source="FIWO02t76aJI0PrfVbyd-6" target="FIWO02t76aJI0PrfVbyd-7">
          <mxGeometry relative="1" as="geometry" />
        </mxCell>
        <mxCell id="FIWO02t76aJI0PrfVbyd-6" value="while tracker.read()" style="strokeWidth=2;html=1;shape=mxgraph.flowchart.loop_limit;whiteSpace=wrap;" vertex="1" parent="WIyWlLk6GJQsqaUBKTNV-1">
          <mxGeometry x="342" y="260" width="100" height="60" as="geometry" />
        </mxCell>
        <mxCell id="FIWO02t76aJI0PrfVbyd-7" value="Diferencia absoluta cp usuario y cp terminales" style="rounded=1;whiteSpace=wrap;html=1;absoluteArcSize=1;arcSize=14;strokeWidth=2;" vertex="1" parent="WIyWlLk6GJQsqaUBKTNV-1">
          <mxGeometry x="318" y="340" width="148" height="50" as="geometry" />
        </mxCell>
        <mxCell id="FIWO02t76aJI0PrfVbyd-16" style="edgeStyle=orthogonalEdgeStyle;rounded=0;orthogonalLoop=1;jettySize=auto;html=1;exitX=0.5;exitY=1;exitDx=0;exitDy=0;exitPerimeter=0;entryX=0.5;entryY=0;entryDx=0;entryDy=0;" edge="1" parent="WIyWlLk6GJQsqaUBKTNV-1" source="FIWO02t76aJI0PrfVbyd-8" target="FIWO02t76aJI0PrfVbyd-9">
          <mxGeometry relative="1" as="geometry" />
        </mxCell>
        <mxCell id="FIWO02t76aJI0PrfVbyd-8" value="diferencia &amp;lt; diferenciamin" style="strokeWidth=2;html=1;shape=mxgraph.flowchart.decision;whiteSpace=wrap;" vertex="1" parent="WIyWlLk6GJQsqaUBKTNV-1">
          <mxGeometry x="297" y="410" width="190" height="60" as="geometry" />
        </mxCell>
        <mxCell id="FIWO02t76aJI0PrfVbyd-9" value="&lt;div&gt;codigomin = codigosBD;&lt;/div&gt;&lt;div&gt;&lt;span style=&quot;background-color: initial;&quot;&gt;diferenciamin = diferencia;&lt;/span&gt;&lt;/div&gt;" style="rounded=1;whiteSpace=wrap;html=1;absoluteArcSize=1;arcSize=14;strokeWidth=2;" vertex="1" parent="WIyWlLk6GJQsqaUBKTNV-1">
          <mxGeometry x="311" y="490" width="162" height="50" as="geometry" />
        </mxCell>
        <mxCell id="FIWO02t76aJI0PrfVbyd-13" style="edgeStyle=orthogonalEdgeStyle;rounded=0;orthogonalLoop=1;jettySize=auto;html=1;exitX=0.5;exitY=1;exitDx=0;exitDy=0;entryX=0.5;entryY=0;entryDx=0;entryDy=0;entryPerimeter=0;" edge="1" parent="WIyWlLk6GJQsqaUBKTNV-1" source="FIWO02t76aJI0PrfVbyd-4" target="FIWO02t76aJI0PrfVbyd-6">
          <mxGeometry relative="1" as="geometry" />
        </mxCell>
        <mxCell id="FIWO02t76aJI0PrfVbyd-15" style="edgeStyle=orthogonalEdgeStyle;rounded=0;orthogonalLoop=1;jettySize=auto;html=1;exitX=0.5;exitY=1;exitDx=0;exitDy=0;entryX=0.5;entryY=0;entryDx=0;entryDy=0;entryPerimeter=0;" edge="1" parent="WIyWlLk6GJQsqaUBKTNV-1" source="FIWO02t76aJI0PrfVbyd-7" target="FIWO02t76aJI0PrfVbyd-8">
          <mxGeometry relative="1" as="geometry" />
        </mxCell>
        <mxCell id="FIWO02t76aJI0PrfVbyd-17" style="edgeStyle=orthogonalEdgeStyle;rounded=0;orthogonalLoop=1;jettySize=auto;html=1;exitX=1;exitY=0.5;exitDx=0;exitDy=0;entryX=1;entryY=0.5;entryDx=0;entryDy=0;entryPerimeter=0;" edge="1" parent="WIyWlLk6GJQsqaUBKTNV-1" source="FIWO02t76aJI0PrfVbyd-9" target="FIWO02t76aJI0PrfVbyd-6">
          <mxGeometry relative="1" as="geometry" />
        </mxCell>
        <mxCell id="FIWO02t76aJI0PrfVbyd-18" style="edgeStyle=orthogonalEdgeStyle;rounded=0;orthogonalLoop=1;jettySize=auto;html=1;exitX=0.5;exitY=1;exitDx=0;exitDy=0;entryX=0.5;entryY=0;entryDx=0;entryDy=0;entryPerimeter=0;" edge="1" parent="WIyWlLk6GJQsqaUBKTNV-1" source="FIWO02t76aJI0PrfVbyd-9" target="FIWO02t76aJI0PrfVbyd-1">
          <mxGeometry relative="1" as="geometry" />
        </mxCell>
      </root>
    </mxGraphModel>
  </diagram>
</mxfile>
